<svg width="162" height="162" viewBox="0 0 162 162" fill="none" xmlns="http://www.w3.org/2000/svg">
<circle cx="81" cy="81" r="81" fill="white"/>
<path d="M115.122 78.965C113.268 71.2438 105.385 66.4931 97.55 68.3751L86.4419 71.0432L69.8726 56.9783C65.4895 53.2215 59.489 51.7913 53.8213 53.1527L46.336 54.9507L65.4492 76.0857L55.2608 78.533L49.5775 71.0011L42.6825 72.6573L45.6409 84.9734C47.4755 92.6114 55.2735 97.3108 63.0238 95.4491L69.3755 93.9234L62.2316 121.029L69.6948 119.237C75.3624 117.875 80.0586 113.876 82.2573 108.538L90.3521 88.8848L116.024 82.7184L115.123 78.965L115.122 78.965ZM106.405 73.4027L102.78 74.2735C100.926 74.7188 99.0634 73.8534 98.1925 72.2823L98.4724 72.215C101.286 71.5391 104.108 72.043 106.405 73.4027ZM53.7777 57.2247L54.7437 56.9927C59.1546 55.9332 63.8246 57.0463 67.243 59.9762L81.6395 72.1966L69.8733 75.0229L53.7777 57.2247ZM47.5015 75.5613L47.9318 75.458L51.0205 79.5514L48.5996 80.1329L47.5015 75.5613ZM78.5493 107.07C76.8381 111.225 73.1832 114.337 68.7724 115.397L67.7844 115.634L73.7856 92.8641L85.5661 90.0344L78.5493 107.07ZM62.1015 91.609C56.4997 92.9546 50.8635 89.5579 49.5374 84.0374L49.522 83.9731L94.2264 73.2351C95.6623 76.9235 99.6925 79.0767 103.702 78.1135L109.814 76.6456C110.438 77.5931 110.916 78.6562 111.205 79.8143L62.1015 91.609Z" fill="black"/>
<path d="M11.267 73.3007L17.0445 79.2231C17.0449 79.2233 17.0451 79.2236 17.0455 79.2239C17.0783 79.2575 17.1125 79.2892 17.1482 79.3192C17.168 79.3358 17.1888 79.3502 17.2093 79.3654C17.2249 79.3771 17.24 79.3897 17.2561 79.4007C17.283 79.4191 17.3108 79.4353 17.3385 79.4515C17.3496 79.4579 17.3603 79.4653 17.3715 79.4714C17.3979 79.4859 17.4251 79.4983 17.4523 79.511C17.4662 79.5176 17.4798 79.5249 17.4941 79.5309C17.5175 79.5409 17.5415 79.5489 17.5653 79.5576C17.5844 79.5645 17.6032 79.5721 17.6227 79.5781C17.6417 79.5841 17.6611 79.5884 17.6805 79.5934C17.7053 79.5999 17.7299 79.6069 17.7551 79.6121C17.7699 79.6151 17.7848 79.6167 17.7996 79.6192C17.8293 79.6242 17.8591 79.6294 17.8894 79.6324C17.9014 79.6337 17.9135 79.6336 17.9255 79.6345C17.9581 79.6369 17.9906 79.6394 18.0236 79.6394C18.0415 79.6394 18.0593 79.6376 18.0772 79.6369C18.104 79.6359 18.1305 79.6357 18.1575 79.6329C18.2033 79.6285 18.249 79.6214 18.2943 79.6123C18.2947 79.6123 18.2952 79.6123 18.2957 79.6122C18.3019 79.6108 18.3079 79.6087 18.3141 79.6074C18.3525 79.5991 18.3907 79.5896 18.4284 79.5778C18.443 79.5733 18.4571 79.5674 18.4715 79.5624C18.5 79.5524 18.5285 79.5427 18.5565 79.5308C18.5757 79.5227 18.5939 79.513 18.6126 79.5041C18.6347 79.4935 18.657 79.4834 18.6786 79.4716C18.7011 79.4594 18.7225 79.4454 18.7441 79.432C18.761 79.4214 18.7781 79.4117 18.7947 79.4004C18.8207 79.3826 18.8454 79.3632 18.87 79.3436C18.8812 79.3347 18.8929 79.3267 18.904 79.3174C18.9355 79.2908 18.9655 79.2627 18.9943 79.2336C18.998 79.2299 19.0021 79.2269 19.0057 79.2231L19.0075 79.2212C19.009 79.2197 19.0103 79.2183 19.0117 79.2169L24.7835 73.3004C25.3252 72.7453 25.3252 71.845 24.7835 71.2898C24.5127 71.0122 24.1577 70.8733 23.8028 70.8734C23.4479 70.8735 23.0929 71.0123 22.8221 71.2898L19.2311 74.9707C19.6286 70.4873 22.8562 66.6051 27.3747 65.6838C27.9948 65.5574 28.6187 65.4914 29.2389 65.4838C30.5826 65.4674 31.9091 65.7245 33.1442 66.2325C33.2392 66.2715 33.3336 66.3121 33.4275 66.3542C34.5542 66.8586 35.598 67.5753 36.5006 68.4861C37.0464 69.0372 37.9247 69.03 38.462 68.4705C38.9995 67.911 38.9926 67.0108 38.4467 66.4599C37.6809 65.6871 36.8353 65.0241 35.9316 64.4778C33.9436 63.2761 31.6754 62.6393 29.3614 62.6394C28.5212 62.6395 27.6743 62.7234 26.8333 62.8949C21.1106 64.0618 17.0183 68.953 16.4766 74.6198L13.2282 71.29C12.6866 70.7347 11.8083 70.7347 11.2667 71.29C10.7253 71.8452 10.7253 72.7455 11.267 73.3007Z" fill="black"/>
<path d="M149.454 85.978L143.677 80.0557C143.676 80.0554 143.676 80.0551 143.676 80.0548C143.643 80.0212 143.609 79.9895 143.573 79.9595C143.553 79.943 143.533 79.9285 143.512 79.9133C143.496 79.9016 143.481 79.889 143.465 79.878C143.438 79.8596 143.411 79.8434 143.383 79.8272C143.372 79.8208 143.361 79.8134 143.35 79.8073C143.323 79.7928 143.296 79.7804 143.269 79.7677C143.255 79.7612 143.242 79.7539 143.227 79.7478C143.204 79.7378 143.18 79.7298 143.156 79.7212C143.137 79.7142 143.118 79.7067 143.099 79.7006C143.08 79.6946 143.06 79.6904 143.041 79.6853C143.016 79.6788 142.992 79.6718 142.966 79.6667C142.951 79.6636 142.937 79.662 142.922 79.6595C142.892 79.6545 142.862 79.6493 142.832 79.6463C142.82 79.645 142.808 79.6451 142.796 79.6442C142.763 79.6418 142.731 79.6394 142.698 79.6394C142.68 79.6394 142.662 79.6412 142.644 79.6418C142.617 79.6429 142.591 79.6431 142.564 79.6458C142.518 79.6503 142.472 79.6573 142.427 79.6664C142.427 79.6665 142.426 79.6665 142.426 79.6666C142.419 79.6679 142.413 79.67 142.407 79.6713C142.369 79.6796 142.331 79.6891 142.293 79.7009C142.278 79.7054 142.264 79.7113 142.25 79.7163C142.221 79.7263 142.193 79.736 142.165 79.7479C142.146 79.756 142.127 79.7657 142.109 79.7746C142.087 79.7852 142.064 79.7953 142.043 79.8071C142.02 79.8194 141.999 79.8333 141.977 79.8467C141.96 79.8573 141.943 79.867 141.927 79.8783C141.901 79.8961 141.876 79.9156 141.851 79.9351C141.84 79.944 141.828 79.9521 141.817 79.9613C141.786 79.9879 141.756 80.016 141.727 80.0451C141.723 80.0488 141.719 80.0519 141.716 80.0557L141.714 80.0575C141.712 80.059 141.711 80.0604 141.71 80.0618L135.938 85.9783C135.396 86.5334 135.396 87.4337 135.938 87.9889C136.209 88.2666 136.564 88.4054 136.919 88.4053C137.273 88.4052 137.628 88.2665 137.899 87.9889L141.49 84.308C141.093 88.7914 137.865 92.6736 133.347 93.5949C132.727 93.7213 132.103 93.7873 131.482 93.7949C130.139 93.8114 128.812 93.5542 127.577 93.0463C127.482 93.0072 127.388 92.9666 127.294 92.9246C126.167 92.4201 125.123 91.7035 124.221 90.7926C123.675 90.2415 122.797 90.2487 122.259 90.8082C121.722 91.3677 121.729 92.2679 122.275 92.8188C123.04 93.5917 123.886 94.2546 124.79 94.8009C126.778 96.0026 129.046 96.6395 131.36 96.6394C132.2 96.6393 133.047 96.5553 133.888 96.3838C139.611 95.2169 143.703 90.3258 144.245 84.659L147.493 87.9887C148.035 88.544 148.913 88.544 149.455 87.9888C149.996 87.4335 149.996 86.5332 149.454 85.978Z" fill="black"/>
</svg>
