<svg width="80" height="60" viewBox="0 0 157 138" fill="none" xmlns="http://www.w3.org/2000/svg">
<path d="M116.147 45.5052C114.118 37.0427 105.488 31.8379 96.9083 33.903L84.7444 36.8308L66.6056 21.4195C61.8074 17.3031 55.2374 15.7373 49.0311 17.2311L40.8342 19.2041L61.7565 42.364L50.5997 45.0495L44.3789 36.7957L36.8286 38.613L40.0642 52.1115C42.0708 60.4828 50.608 65.6314 59.095 63.5886L66.0504 61.9144L58.2199 91.6269L66.3925 89.6598C72.5987 88.1659 77.7422 83.7807 80.1512 77.9292L89.0207 56.3855L117.133 49.6189L116.147 45.5052L116.147 45.5052ZM106.603 39.4111L102.633 40.3666C100.603 40.8552 98.5638 39.9072 97.6106 38.1854L97.9171 38.1117C100.998 37.37 104.088 37.9214 106.603 39.4111ZM48.9821 21.6944L50.0399 21.4398C54.87 20.2772 59.9832 21.4958 63.7254 24.7062L79.4856 38.0965L66.6011 41.1978L48.9821 21.6944ZM42.1043 41.7946L42.5756 41.6812L45.9564 46.167L43.3053 46.8051L42.1043 41.7946ZM76.0916 76.3214C74.2166 80.8756 70.2136 84.2884 65.3837 85.451L64.3017 85.7114L70.8796 60.752L83.7798 57.647L76.0916 76.3214ZM58.0862 59.3798C51.952 60.8563 45.7815 57.1349 44.3311 51.0844L44.3142 51.014L93.2676 39.2309C94.8388 43.2734 99.2511 45.6322 103.642 44.5753L110.334 42.9645C111.017 44.0029 111.541 45.168 111.857 46.4373L58.0862 59.3798Z" fill="#FCF6F6"/>
<path d="M2.44082 39.3085L8.76324 45.7963C8.76364 45.7966 8.76395 45.7969 8.76435 45.7972C8.80027 45.834 8.83771 45.8688 8.87677 45.9016C8.89843 45.9198 8.92119 45.9355 8.94356 45.9522C8.96066 45.965 8.97715 45.9788 8.99486 45.9909C9.02421 46.011 9.05467 46.0288 9.08503 46.0465C9.09717 46.0536 9.10881 46.0617 9.12106 46.0683C9.15 46.0842 9.17975 46.0978 9.20951 46.1117C9.22479 46.1189 9.23966 46.1269 9.25525 46.1335C9.28085 46.1444 9.30717 46.1532 9.33318 46.1627C9.35413 46.1702 9.37467 46.1786 9.39602 46.1852C9.41687 46.1917 9.43813 46.1964 9.45928 46.2019C9.4864 46.2091 9.51332 46.2167 9.54095 46.2223C9.55715 46.2257 9.57344 46.2274 9.58963 46.2301C9.62222 46.2356 9.65481 46.2413 9.68791 46.2446C9.70107 46.246 9.71433 46.2459 9.72748 46.2469C9.76311 46.2495 9.79874 46.2522 9.83487 46.2522C9.85441 46.2522 9.87394 46.2502 9.89347 46.2495C9.92283 46.2483 9.95188 46.2481 9.98143 46.2451C10.0315 46.2402 10.0815 46.2325 10.1311 46.2225C10.1316 46.2224 10.1321 46.2224 10.1328 46.2223C10.1395 46.2208 10.146 46.2185 10.1529 46.2171C10.1949 46.2079 10.2367 46.1975 10.278 46.1846C10.294 46.1797 10.3094 46.1732 10.3252 46.1677C10.3564 46.1568 10.3875 46.1461 10.4182 46.1331C10.4393 46.1242 10.4592 46.1136 10.4796 46.1038C10.5038 46.0921 10.5282 46.0811 10.5519 46.0681C10.5765 46.0547 10.5999 46.0395 10.6236 46.0247C10.6421 46.0132 10.6608 46.0025 10.679 45.9901C10.7074 45.9706 10.7344 45.9493 10.7614 45.9279C10.7737 45.9181 10.7865 45.9093 10.7986 45.8991C10.8331 45.87 10.866 45.8391 10.8975 45.8072C10.9016 45.8032 10.906 45.7999 10.91 45.7957L10.912 45.7936C10.9136 45.7921 10.9151 45.7905 10.9166 45.789L17.2362 39.3041C17.8293 38.6957 17.8296 37.7092 17.2368 37.1009C16.9404 36.7968 16.5519 36.6447 16.1635 36.6449C15.775 36.6451 15.3863 36.7973 15.0899 37.1015L11.158 41.1361C11.5945 36.2231 15.1286 31.9682 20.0748 30.9573C20.7537 30.8186 21.4366 30.7461 22.1155 30.7376C23.5863 30.7191 25.0382 31.0005 26.39 31.5567C26.494 31.5995 26.5974 31.6439 26.7001 31.69C27.9332 32.2424 29.0756 33.0274 30.0633 34.0253C30.6606 34.629 31.622 34.6208 32.2103 34.0076C32.7988 33.3943 32.7916 32.4079 32.1942 31.8044C31.3562 30.9578 30.4307 30.2316 29.4417 29.6332C27.266 28.317 24.7834 27.6198 22.2504 27.6206C21.3307 27.621 20.4036 27.7133 19.483 27.9014C13.2185 29.1818 8.73764 34.5426 8.14294 40.7523L4.58817 37.1046C3.99553 36.4963 3.03419 36.4966 2.44112 37.1051C1.84834 37.7137 1.84807 38.7002 2.44082 39.3085Z" fill="#FCF6F6"/>
<path d="M153.724 53.2002L147.402 46.7123C147.401 46.712 147.401 46.7117 147.401 46.7114C147.365 46.6747 147.327 46.6399 147.288 46.6071C147.267 46.5889 147.244 46.5731 147.222 46.5564C147.204 46.5436 147.188 46.5298 147.17 46.5178C147.141 46.4976 147.11 46.4799 147.08 46.4621C147.068 46.4551 147.056 46.447 147.044 46.4403C147.015 46.4244 146.985 46.4108 146.956 46.3969C146.94 46.3898 146.925 46.3818 146.91 46.3751C146.884 46.3642 146.858 46.3554 146.832 46.346C146.811 46.3384 146.79 46.3301 146.769 46.3234C146.748 46.3169 146.727 46.3122 146.706 46.3067C146.679 46.2996 146.652 46.2919 146.624 46.2863C146.608 46.283 146.592 46.2812 146.575 46.2785C146.543 46.273 146.51 46.2673 146.477 46.264C146.464 46.2627 146.451 46.2628 146.438 46.2617C146.402 46.2592 146.366 46.2565 146.33 46.2565C146.311 46.2565 146.291 46.2585 146.272 46.2592C146.242 46.2603 146.213 46.2606 146.184 46.2636C146.134 46.2685 146.084 46.2762 146.034 46.2862C146.033 46.2863 146.033 46.2863 146.032 46.2864C146.026 46.2878 146.019 46.2901 146.012 46.2916C145.97 46.3007 145.928 46.3111 145.887 46.324C145.871 46.329 145.856 46.3354 145.84 46.3409C145.809 46.3519 145.778 46.3626 145.747 46.3756C145.726 46.3845 145.706 46.3951 145.685 46.4049C145.661 46.4165 145.637 46.4275 145.613 46.4405C145.589 46.4539 145.565 46.4692 145.541 46.4839C145.523 46.4955 145.504 46.5062 145.486 46.5185C145.458 46.5381 145.431 46.5594 145.404 46.5808C145.391 46.5905 145.379 46.5994 145.366 46.6096C145.332 46.6386 145.299 46.6695 145.268 46.7014C145.263 46.7054 145.259 46.7088 145.255 46.7129L145.253 46.715C145.251 46.7166 145.25 46.7181 145.248 46.7197L138.929 53.2045C138.336 53.813 138.335 54.7995 138.928 55.4077C139.225 55.7119 139.613 55.8639 140.002 55.8637C140.39 55.8635 140.779 55.7113 141.075 55.4072L145.007 51.3726C144.571 56.2855 141.036 60.5405 136.09 61.5514C135.411 61.6901 134.728 61.7626 134.05 61.7711C132.579 61.7895 131.127 61.5081 129.775 60.9519C129.671 60.9092 129.568 60.8647 129.465 60.8186C128.232 60.2662 127.089 59.4812 126.102 58.4834C125.504 57.8797 124.543 57.8878 123.955 58.5011C123.366 59.1144 123.373 60.1007 123.971 60.7042C124.809 61.5509 125.734 62.2771 126.723 62.8754C128.899 64.1916 131.382 64.8888 133.915 64.888C134.834 64.8877 135.761 64.7954 136.682 64.6072C142.947 63.3269 147.427 57.9661 148.022 51.7564L151.577 55.4041C152.17 56.0124 153.131 56.0121 153.724 55.4035C154.317 54.7949 154.317 53.8084 153.724 53.2002Z" fill="#FCF6F6"/>
<path d="M25.3162 120C24.8682 120 24.5242 119.808 24.2842 119.424C24.0442 119.04 24.0202 118.632 24.2122 118.2L30.9562 102.096C31.1962 101.536 31.5882 101.256 32.1322 101.256C32.7082 101.256 33.1002 101.536 33.3082 102.096L40.0762 118.248C40.2522 118.696 40.2202 119.104 39.9802 119.472C39.7562 119.824 39.4122 120 38.9482 120C38.7082 120 38.4762 119.936 38.2522 119.808C38.0442 119.664 37.8922 119.472 37.7962 119.232L31.8442 104.448H32.5162L26.4682 119.232C26.3562 119.488 26.1882 119.68 25.9642 119.808C25.7562 119.936 25.5402 120 25.3162 120ZM26.5882 115.872L27.5482 113.808H36.9562L37.9162 115.872H26.5882ZM46.1742 119.976C45.6782 119.976 45.2942 119.712 45.0222 119.184L39.9342 108.456C39.8062 108.184 39.7902 107.92 39.8862 107.664C39.9982 107.392 40.2062 107.184 40.5102 107.04C40.7822 106.896 41.0542 106.872 41.3262 106.968C41.6142 107.064 41.8302 107.248 41.9742 107.52L46.7262 117.768H45.5742L50.2782 107.52C50.4222 107.248 50.6382 107.064 50.9262 106.968C51.2302 106.872 51.5342 106.896 51.8382 107.04C52.1262 107.168 52.3182 107.368 52.4142 107.64C52.5102 107.912 52.4942 108.184 52.3662 108.456L47.2782 119.184C47.0382 119.712 46.6702 119.976 46.1742 119.976ZM56.3467 120C55.9947 120 55.6987 119.888 55.4587 119.664C55.2347 119.424 55.1227 119.128 55.1227 118.776V108.096C55.1227 107.728 55.2347 107.432 55.4587 107.208C55.6987 106.984 55.9947 106.872 56.3467 106.872C56.7147 106.872 57.0107 106.984 57.2347 107.208C57.4587 107.432 57.5707 107.728 57.5707 108.096V118.776C57.5707 119.128 57.4587 119.424 57.2347 119.664C57.0107 119.888 56.7147 120 56.3467 120ZM56.3467 104.736C55.9147 104.736 55.5387 104.584 55.2187 104.28C54.9147 103.96 54.7627 103.584 54.7627 103.152C54.7627 102.72 54.9147 102.352 55.2187 102.048C55.5387 101.728 55.9147 101.568 56.3467 101.568C56.7787 101.568 57.1467 101.728 57.4507 102.048C57.7707 102.352 57.9307 102.72 57.9307 103.152C57.9307 103.584 57.7707 103.96 57.4507 104.28C57.1467 104.584 56.7787 104.736 56.3467 104.736ZM67.5968 120.096C66.4288 120.096 65.3808 119.808 64.4528 119.232C63.5248 118.64 62.7888 117.848 62.2448 116.856C61.7168 115.848 61.4528 114.712 61.4528 113.448C61.4528 112.184 61.7408 111.048 62.3168 110.04C62.9088 109.032 63.7008 108.24 64.6928 107.664C65.7008 107.072 66.8288 106.776 68.0768 106.776C69.3248 106.776 70.4448 107.072 71.4368 107.664C72.4288 108.24 73.2128 109.032 73.7888 110.04C74.3808 111.048 74.6768 112.184 74.6768 113.448H73.7408C73.7408 114.712 73.4688 115.848 72.9248 116.856C72.3968 117.848 71.6688 118.64 70.7408 119.232C69.8128 119.808 68.7648 120.096 67.5968 120.096ZM68.0768 117.936C68.8928 117.936 69.6208 117.744 70.2608 117.36C70.9008 116.96 71.4048 116.424 71.7728 115.752C72.1408 115.064 72.3248 114.296 72.3248 113.448C72.3248 112.584 72.1408 111.816 71.7728 111.144C71.4048 110.456 70.9008 109.92 70.2608 109.536C69.6208 109.136 68.8928 108.936 68.0768 108.936C67.2768 108.936 66.5488 109.136 65.8928 109.536C65.2528 109.92 64.7408 110.456 64.3568 111.144C63.9888 111.816 63.8048 112.584 63.8048 113.448C63.8048 114.296 63.9888 115.064 64.3568 115.752C64.7408 116.424 65.2528 116.96 65.8928 117.36C66.5488 117.744 67.2768 117.936 68.0768 117.936ZM73.4528 120.024C73.1008 120.024 72.8048 119.912 72.5648 119.688C72.3408 119.448 72.2288 119.152 72.2288 118.8V115.128L72.6848 112.584L74.6768 113.448V118.8C74.6768 119.152 74.5568 119.448 74.3168 119.688C74.0928 119.912 73.8048 120.024 73.4528 120.024ZM79.7842 120C79.4322 120 79.1362 119.88 78.8962 119.64C78.6722 119.4 78.5602 119.104 78.5602 118.752V102.504C78.5602 102.152 78.6802 101.856 78.9202 101.616C79.1602 101.376 79.4482 101.256 79.7842 101.256C80.1362 101.256 80.4322 101.376 80.6722 101.616C80.9122 101.856 81.0322 102.152 81.0322 102.504V117.504H89.7202C90.0722 117.504 90.3682 117.624 90.6082 117.864C90.8482 118.104 90.9682 118.4 90.9682 118.752C90.9682 119.104 90.8482 119.4 90.6082 119.64C90.3682 119.88 90.0722 120 89.7202 120H79.7842ZM95.1826 120C94.8306 120 94.5346 119.888 94.2946 119.664C94.0706 119.424 93.9586 119.128 93.9586 118.776V108.096C93.9586 107.728 94.0706 107.432 94.2946 107.208C94.5346 106.984 94.8306 106.872 95.1826 106.872C95.5506 106.872 95.8466 106.984 96.0706 107.208C96.2946 107.432 96.4066 107.728 96.4066 108.096V118.776C96.4066 119.128 96.2946 119.424 96.0706 119.664C95.8466 119.888 95.5506 120 95.1826 120ZM95.1826 104.736C94.7506 104.736 94.3746 104.584 94.0546 104.28C93.7506 103.96 93.5986 103.584 93.5986 103.152C93.5986 102.72 93.7506 102.352 94.0546 102.048C94.3746 101.728 94.7506 101.568 95.1826 101.568C95.6146 101.568 95.9826 101.728 96.2866 102.048C96.6066 102.352 96.7666 102.72 96.7666 103.152C96.7666 103.584 96.6066 103.96 96.2866 104.28C95.9826 104.584 95.6146 104.736 95.1826 104.736ZM105.737 120C104.937 120 104.217 119.8 103.577 119.4C102.937 118.984 102.433 118.424 102.065 117.72C101.697 117.016 101.513 116.224 101.513 115.344V103.896C101.513 103.544 101.625 103.256 101.849 103.032C102.073 102.808 102.361 102.696 102.713 102.696C103.065 102.696 103.353 102.808 103.577 103.032C103.801 103.256 103.913 103.544 103.913 103.896V115.344C103.913 115.984 104.089 116.52 104.441 116.952C104.793 117.384 105.225 117.6 105.737 117.6H106.553C106.841 117.6 107.081 117.712 107.273 117.936C107.481 118.16 107.585 118.448 107.585 118.8C107.585 119.152 107.449 119.44 107.177 119.664C106.921 119.888 106.585 120 106.169 120H105.737ZM100.409 109.416C100.073 109.416 99.8008 109.32 99.5928 109.128C99.3848 108.936 99.2808 108.696 99.2808 108.408C99.2808 108.088 99.3848 107.832 99.5928 107.64C99.8008 107.448 100.073 107.352 100.409 107.352H105.953C106.289 107.352 106.561 107.448 106.769 107.64C106.977 107.832 107.081 108.088 107.081 108.408C107.081 108.696 106.977 108.936 106.769 109.128C106.561 109.32 106.289 109.416 105.953 109.416H100.409ZM116.762 120.096C115.434 120.096 114.25 119.816 113.21 119.256C112.186 118.68 111.378 117.896 110.786 116.904C110.21 115.896 109.922 114.744 109.922 113.448C109.922 112.136 110.194 110.984 110.738 109.992C111.298 108.984 112.066 108.2 113.042 107.64C114.018 107.064 115.138 106.776 116.402 106.776C117.65 106.776 118.722 107.056 119.618 107.616C120.514 108.16 121.194 108.92 121.658 109.896C122.138 110.856 122.378 111.968 122.378 113.232C122.378 113.536 122.274 113.792 122.066 114C121.858 114.192 121.594 114.288 121.274 114.288H111.602V112.368H121.202L120.218 113.04C120.202 112.24 120.042 111.528 119.738 110.904C119.434 110.264 119.002 109.76 118.442 109.392C117.882 109.024 117.202 108.84 116.402 108.84C115.49 108.84 114.706 109.04 114.05 109.44C113.41 109.84 112.922 110.392 112.586 111.096C112.25 111.784 112.082 112.568 112.082 113.448C112.082 114.328 112.282 115.112 112.682 115.8C113.082 116.488 113.634 117.032 114.338 117.432C115.042 117.832 115.85 118.032 116.762 118.032C117.258 118.032 117.762 117.944 118.274 117.768C118.802 117.576 119.226 117.36 119.546 117.12C119.786 116.944 120.042 116.856 120.314 116.856C120.602 116.84 120.85 116.92 121.058 117.096C121.33 117.336 121.474 117.6 121.49 117.888C121.506 118.176 121.378 118.424 121.106 118.632C120.562 119.064 119.882 119.416 119.066 119.688C118.266 119.96 117.498 120.096 116.762 120.096Z" fill="#FCF6F6"/>
</svg>
